# xmcd CD database file
#
# Track frame offsets:
#	150
#	30616
#	59216
#	99091
#	126164
#	145903
#	180501
#	215328
#	242819
#	255019
#	276457
#
# Disc length: 4056 seconds
#
# Revision: 0
# Processed by: cddbd v1.5.2PL0 Copyright (c) Steve Scherf et al.
# Submitted via: CDex 1.99.1
#
DISCID=9c0fd60b
DTITLE=Anat Cohen - Carloscuro
DYEAR=2012
DGENRE=Jazz
TTITLE0=Anat's Dance
TTITLE1=La Vie En Rose
TTITLE2=All Brothers
TTITLE3=As Rosas Nao Falam
TTITLE4=Nightmare
TTITLE5=Tudo Que Voce Podia Ser
TTITLE6=And The World Weeps
TTITLE7=Olha Maria
TTITLE8=Kick Off
TTITLE9=Um A Zero
TTITLE10=The Wedding
EXTD=YEAR: 2012
EXTT0=
EXTT1=
EXTT2=
EXTT3=
EXTT4=
EXTT5=
EXTT6=
EXTT7=
EXTT8=
EXTT9=
EXTT10=
PLAYORDER=
